<mxfile host="app.diagrams.net" modified="2024-06-10T08:23:10.155Z" agent="Mozilla/5.0 (Windows NT 10.0; Win64; x64) AppleWebKit/537.36 (KHTML, like Gecko) Chrome/125.0.0.0 Safari/537.36" etag="6ghBPcFVBxi_pfy36ias" version="24.5.1" type="github">
  <diagram name="Page-1" id="FsJ9IN1DXKN0ybxhipiX">
    <mxGraphModel dx="2284" dy="746" grid="1" gridSize="10" guides="1" tooltips="1" connect="1" arrows="1" fold="1" page="1" pageScale="1" pageWidth="850" pageHeight="1100" math="0" shadow="0">
      <root>
        <mxCell id="0" />
        <mxCell id="1" parent="0" />
        <mxCell id="zj8NO0IGrwKYI-p0xuvi-51" style="edgeStyle=orthogonalEdgeStyle;rounded=0;orthogonalLoop=1;jettySize=auto;html=1;entryX=0.5;entryY=0;entryDx=0;entryDy=0;" parent="1" source="zj8NO0IGrwKYI-p0xuvi-30" target="zj8NO0IGrwKYI-p0xuvi-49" edge="1">
          <mxGeometry relative="1" as="geometry" />
        </mxCell>
        <mxCell id="zj8NO0IGrwKYI-p0xuvi-52" style="edgeStyle=orthogonalEdgeStyle;rounded=0;orthogonalLoop=1;jettySize=auto;html=1;entryX=0.5;entryY=0;entryDx=0;entryDy=0;" parent="1" source="zj8NO0IGrwKYI-p0xuvi-30" target="zj8NO0IGrwKYI-p0xuvi-50" edge="1">
          <mxGeometry relative="1" as="geometry" />
        </mxCell>
        <mxCell id="zj8NO0IGrwKYI-p0xuvi-30" value="Chat app" style="rounded=1;whiteSpace=wrap;html=1;" parent="1" vertex="1">
          <mxGeometry x="510" y="220" width="120" height="40" as="geometry" />
        </mxCell>
        <mxCell id="zj8NO0IGrwKYI-p0xuvi-31" style="edgeStyle=orthogonalEdgeStyle;rounded=0;orthogonalLoop=1;jettySize=auto;html=1;entryX=0.5;entryY=0;entryDx=0;entryDy=0;" parent="1" target="zj8NO0IGrwKYI-p0xuvi-33" edge="1">
          <mxGeometry relative="1" as="geometry">
            <mxPoint x="180" y="185" as="sourcePoint" />
          </mxGeometry>
        </mxCell>
        <mxCell id="zj8NO0IGrwKYI-p0xuvi-32" style="edgeStyle=orthogonalEdgeStyle;rounded=0;orthogonalLoop=1;jettySize=auto;html=1;entryX=0.5;entryY=0;entryDx=0;entryDy=0;" parent="1" source="zj8NO0IGrwKYI-p0xuvi-33" target="zj8NO0IGrwKYI-p0xuvi-36" edge="1">
          <mxGeometry relative="1" as="geometry" />
        </mxCell>
        <mxCell id="zj8NO0IGrwKYI-p0xuvi-33" value="Login" style="rounded=0;whiteSpace=wrap;html=1;" parent="1" vertex="1">
          <mxGeometry x="120" y="235" width="120" height="60" as="geometry" />
        </mxCell>
        <mxCell id="zj8NO0IGrwKYI-p0xuvi-34" value="Bắt đầu" style="ellipse;whiteSpace=wrap;html=1;" parent="1" vertex="1">
          <mxGeometry x="115" y="165" width="120" height="40" as="geometry" />
        </mxCell>
        <mxCell id="zj8NO0IGrwKYI-p0xuvi-35" style="edgeStyle=orthogonalEdgeStyle;rounded=0;orthogonalLoop=1;jettySize=auto;html=1;" parent="1" source="zj8NO0IGrwKYI-p0xuvi-36" target="zj8NO0IGrwKYI-p0xuvi-39" edge="1">
          <mxGeometry relative="1" as="geometry" />
        </mxCell>
        <mxCell id="zj8NO0IGrwKYI-p0xuvi-36" value="Nhập email/password" style="rounded=0;whiteSpace=wrap;html=1;" parent="1" vertex="1">
          <mxGeometry x="120" y="345" width="120" height="60" as="geometry" />
        </mxCell>
        <mxCell id="zj8NO0IGrwKYI-p0xuvi-37" style="edgeStyle=orthogonalEdgeStyle;rounded=0;orthogonalLoop=1;jettySize=auto;html=1;entryX=0.5;entryY=0;entryDx=0;entryDy=0;" parent="1" source="zj8NO0IGrwKYI-p0xuvi-39" target="zj8NO0IGrwKYI-p0xuvi-41" edge="1">
          <mxGeometry relative="1" as="geometry" />
        </mxCell>
        <mxCell id="zj8NO0IGrwKYI-p0xuvi-38" style="edgeStyle=orthogonalEdgeStyle;rounded=0;orthogonalLoop=1;jettySize=auto;html=1;exitX=0;exitY=0.5;exitDx=0;exitDy=0;entryX=0;entryY=0.5;entryDx=0;entryDy=0;" parent="1" source="zj8NO0IGrwKYI-p0xuvi-39" target="zj8NO0IGrwKYI-p0xuvi-33" edge="1">
          <mxGeometry relative="1" as="geometry">
            <mxPoint x="-10" y="285" as="targetPoint" />
            <Array as="points">
              <mxPoint x="60" y="495" />
              <mxPoint x="60" y="265" />
            </Array>
          </mxGeometry>
        </mxCell>
        <mxCell id="zj8NO0IGrwKYI-p0xuvi-39" value="email vàpassword&lt;div&gt;hợp lệ?&lt;/div&gt;" style="rhombus;whiteSpace=wrap;html=1;" parent="1" vertex="1">
          <mxGeometry x="115" y="455" width="130" height="80" as="geometry" />
        </mxCell>
        <mxCell id="zj8NO0IGrwKYI-p0xuvi-40" style="edgeStyle=orthogonalEdgeStyle;rounded=0;orthogonalLoop=1;jettySize=auto;html=1;entryX=0.5;entryY=0;entryDx=0;entryDy=0;" parent="1" source="zj8NO0IGrwKYI-p0xuvi-41" edge="1">
          <mxGeometry relative="1" as="geometry">
            <mxPoint x="180" y="685" as="targetPoint" />
          </mxGeometry>
        </mxCell>
        <mxCell id="zj8NO0IGrwKYI-p0xuvi-41" value="Hiển thị các hộp thoại" style="rounded=0;whiteSpace=wrap;html=1;" parent="1" vertex="1">
          <mxGeometry x="120" y="575" width="120" height="60" as="geometry" />
        </mxCell>
        <mxCell id="zj8NO0IGrwKYI-p0xuvi-42" style="edgeStyle=orthogonalEdgeStyle;rounded=0;orthogonalLoop=1;jettySize=auto;html=1;entryX=0.5;entryY=0;entryDx=0;entryDy=0;" parent="1" source="zj8NO0IGrwKYI-p0xuvi-43" target="zj8NO0IGrwKYI-p0xuvi-45" edge="1">
          <mxGeometry relative="1" as="geometry" />
        </mxCell>
        <mxCell id="zj8NO0IGrwKYI-p0xuvi-43" value="Người dùng nhập tin nhắn&lt;div&gt;và hình ảnh (nếu có)&lt;/div&gt;" style="shape=parallelogram;perimeter=parallelogramPerimeter;whiteSpace=wrap;html=1;fixedSize=1;" parent="1" vertex="1">
          <mxGeometry x="92.5" y="685" width="175" height="60" as="geometry" />
        </mxCell>
        <mxCell id="zj8NO0IGrwKYI-p0xuvi-44" style="edgeStyle=orthogonalEdgeStyle;rounded=0;orthogonalLoop=1;jettySize=auto;html=1;entryX=0.5;entryY=0;entryDx=0;entryDy=0;" parent="1" source="zj8NO0IGrwKYI-p0xuvi-45" target="zj8NO0IGrwKYI-p0xuvi-46" edge="1">
          <mxGeometry relative="1" as="geometry" />
        </mxCell>
        <mxCell id="zj8NO0IGrwKYI-p0xuvi-45" value="Gửi tin nhắn&lt;div&gt;và hình ảnh (nếu có)&lt;/div&gt;" style="rounded=0;whiteSpace=wrap;html=1;" parent="1" vertex="1">
          <mxGeometry x="107.5" y="785" width="145" height="60" as="geometry" />
        </mxCell>
        <mxCell id="zj8NO0IGrwKYI-p0xuvi-46" value="Kết thúc" style="ellipse;whiteSpace=wrap;html=1;" parent="1" vertex="1">
          <mxGeometry x="120" y="895" width="120" height="40" as="geometry" />
        </mxCell>
        <mxCell id="zj8NO0IGrwKYI-p0xuvi-47" value="yes" style="text;html=1;align=center;verticalAlign=middle;whiteSpace=wrap;rounded=0;" parent="1" vertex="1">
          <mxGeometry x="170" y="535" width="60" height="30" as="geometry" />
        </mxCell>
        <mxCell id="zj8NO0IGrwKYI-p0xuvi-48" value="No" style="text;html=1;align=center;verticalAlign=middle;whiteSpace=wrap;rounded=0;" parent="1" vertex="1">
          <mxGeometry x="10" y="345" width="60" height="30" as="geometry" />
        </mxCell>
        <mxCell id="zj8NO0IGrwKYI-p0xuvi-49" value="Send /&amp;nbsp;Receive Message&amp;nbsp;" style="rounded=1;whiteSpace=wrap;html=1;" parent="1" vertex="1">
          <mxGeometry x="425" y="320" width="120" height="60" as="geometry" />
        </mxCell>
        <mxCell id="zj8NO0IGrwKYI-p0xuvi-50" value="Accept / Decline&amp;nbsp;&lt;div&gt;Offer&lt;/div&gt;" style="rounded=1;whiteSpace=wrap;html=1;" parent="1" vertex="1">
          <mxGeometry x="600" y="320" width="120" height="60" as="geometry" />
        </mxCell>
        <mxCell id="zj8NO0IGrwKYI-p0xuvi-54" style="edgeStyle=orthogonalEdgeStyle;rounded=0;orthogonalLoop=1;jettySize=auto;html=1;" parent="1" source="zj8NO0IGrwKYI-p0xuvi-53" target="zj8NO0IGrwKYI-p0xuvi-30" edge="1">
          <mxGeometry relative="1" as="geometry" />
        </mxCell>
        <mxCell id="zj8NO0IGrwKYI-p0xuvi-53" value="Login" style="rounded=1;whiteSpace=wrap;html=1;" parent="1" vertex="1">
          <mxGeometry x="510" y="140" width="120" height="40" as="geometry" />
        </mxCell>
        <mxCell id="zj8NO0IGrwKYI-p0xuvi-58" style="edgeStyle=orthogonalEdgeStyle;rounded=0;orthogonalLoop=1;jettySize=auto;html=1;entryX=0;entryY=0.5;entryDx=0;entryDy=0;" parent="1" source="zj8NO0IGrwKYI-p0xuvi-55" target="zj8NO0IGrwKYI-p0xuvi-57" edge="1">
          <mxGeometry relative="1" as="geometry" />
        </mxCell>
        <mxCell id="zj8NO0IGrwKYI-p0xuvi-55" value="Login" style="rounded=0;whiteSpace=wrap;html=1;" parent="1" vertex="1">
          <mxGeometry x="400" y="515" width="90" height="35" as="geometry" />
        </mxCell>
        <mxCell id="zj8NO0IGrwKYI-p0xuvi-57" value="Chat app" style="rounded=0;whiteSpace=wrap;html=1;" parent="1" vertex="1">
          <mxGeometry x="560" y="515" width="100" height="35" as="geometry" />
        </mxCell>
        <mxCell id="zj8NO0IGrwKYI-p0xuvi-59" value="&lt;b&gt;Quy trình gửi tin nhắn&lt;/b&gt;" style="text;html=1;align=center;verticalAlign=middle;whiteSpace=wrap;rounded=0;" parent="1" vertex="1">
          <mxGeometry x="80" y="130" width="190" height="30" as="geometry" />
        </mxCell>
        <mxCell id="zj8NO0IGrwKYI-p0xuvi-61" style="edgeStyle=orthogonalEdgeStyle;rounded=0;orthogonalLoop=1;jettySize=auto;html=1;entryX=0.5;entryY=0;entryDx=0;entryDy=0;" parent="1" target="zj8NO0IGrwKYI-p0xuvi-63" edge="1">
          <mxGeometry relative="1" as="geometry">
            <mxPoint x="-410" y="105" as="sourcePoint" />
          </mxGeometry>
        </mxCell>
        <mxCell id="zj8NO0IGrwKYI-p0xuvi-62" style="edgeStyle=orthogonalEdgeStyle;rounded=0;orthogonalLoop=1;jettySize=auto;html=1;entryX=0.5;entryY=0;entryDx=0;entryDy=0;" parent="1" source="zj8NO0IGrwKYI-p0xuvi-63" target="zj8NO0IGrwKYI-p0xuvi-66" edge="1">
          <mxGeometry relative="1" as="geometry" />
        </mxCell>
        <mxCell id="zj8NO0IGrwKYI-p0xuvi-63" value="Login" style="rounded=0;whiteSpace=wrap;html=1;" parent="1" vertex="1">
          <mxGeometry x="-470" y="155" width="120" height="60" as="geometry" />
        </mxCell>
        <mxCell id="zj8NO0IGrwKYI-p0xuvi-64" value="Bắt đầu" style="ellipse;whiteSpace=wrap;html=1;" parent="1" vertex="1">
          <mxGeometry x="-475" y="85" width="120" height="40" as="geometry" />
        </mxCell>
        <mxCell id="zj8NO0IGrwKYI-p0xuvi-65" style="edgeStyle=orthogonalEdgeStyle;rounded=0;orthogonalLoop=1;jettySize=auto;html=1;" parent="1" source="zj8NO0IGrwKYI-p0xuvi-66" target="zj8NO0IGrwKYI-p0xuvi-69" edge="1">
          <mxGeometry relative="1" as="geometry" />
        </mxCell>
        <mxCell id="zj8NO0IGrwKYI-p0xuvi-66" value="Nhập email/password" style="rounded=0;whiteSpace=wrap;html=1;" parent="1" vertex="1">
          <mxGeometry x="-470" y="265" width="120" height="60" as="geometry" />
        </mxCell>
        <mxCell id="zj8NO0IGrwKYI-p0xuvi-67" style="edgeStyle=orthogonalEdgeStyle;rounded=0;orthogonalLoop=1;jettySize=auto;html=1;entryX=0.5;entryY=0;entryDx=0;entryDy=0;" parent="1" source="zj8NO0IGrwKYI-p0xuvi-69" target="zj8NO0IGrwKYI-p0xuvi-71" edge="1">
          <mxGeometry relative="1" as="geometry" />
        </mxCell>
        <mxCell id="zj8NO0IGrwKYI-p0xuvi-68" style="edgeStyle=orthogonalEdgeStyle;rounded=0;orthogonalLoop=1;jettySize=auto;html=1;exitX=0;exitY=0.5;exitDx=0;exitDy=0;entryX=0;entryY=0.5;entryDx=0;entryDy=0;" parent="1" source="zj8NO0IGrwKYI-p0xuvi-69" target="zj8NO0IGrwKYI-p0xuvi-63" edge="1">
          <mxGeometry relative="1" as="geometry">
            <mxPoint x="-600" y="205" as="targetPoint" />
            <Array as="points">
              <mxPoint x="-530" y="415" />
              <mxPoint x="-530" y="185" />
            </Array>
          </mxGeometry>
        </mxCell>
        <mxCell id="zj8NO0IGrwKYI-p0xuvi-69" value="email vàpassword&lt;div&gt;hợp lệ?&lt;/div&gt;" style="rhombus;whiteSpace=wrap;html=1;" parent="1" vertex="1">
          <mxGeometry x="-475" y="375" width="130" height="80" as="geometry" />
        </mxCell>
        <mxCell id="zj8NO0IGrwKYI-p0xuvi-81" style="edgeStyle=orthogonalEdgeStyle;rounded=0;orthogonalLoop=1;jettySize=auto;html=1;entryX=0.5;entryY=0;entryDx=0;entryDy=0;" parent="1" source="zj8NO0IGrwKYI-p0xuvi-71" target="zj8NO0IGrwKYI-p0xuvi-75" edge="1">
          <mxGeometry relative="1" as="geometry" />
        </mxCell>
        <mxCell id="zj8NO0IGrwKYI-p0xuvi-71" value="Hiển thị các hộp thoại" style="rounded=0;whiteSpace=wrap;html=1;" parent="1" vertex="1">
          <mxGeometry x="-470" y="495" width="120" height="60" as="geometry" />
        </mxCell>
        <mxCell id="zj8NO0IGrwKYI-p0xuvi-84" style="edgeStyle=orthogonalEdgeStyle;rounded=0;orthogonalLoop=1;jettySize=auto;html=1;entryX=0.5;entryY=0;entryDx=0;entryDy=0;" parent="1" source="zj8NO0IGrwKYI-p0xuvi-75" target="zj8NO0IGrwKYI-p0xuvi-83" edge="1">
          <mxGeometry relative="1" as="geometry" />
        </mxCell>
        <mxCell id="zj8NO0IGrwKYI-p0xuvi-75" value="Chọn offer muốn thao tác" style="rounded=0;whiteSpace=wrap;html=1;" parent="1" vertex="1">
          <mxGeometry x="-482.5" y="590" width="145" height="60" as="geometry" />
        </mxCell>
        <mxCell id="zj8NO0IGrwKYI-p0xuvi-76" value="Kết thúc" style="ellipse;whiteSpace=wrap;html=1;" parent="1" vertex="1">
          <mxGeometry x="-470" y="935" width="120" height="40" as="geometry" />
        </mxCell>
        <mxCell id="zj8NO0IGrwKYI-p0xuvi-77" value="yes" style="text;html=1;align=center;verticalAlign=middle;whiteSpace=wrap;rounded=0;" parent="1" vertex="1">
          <mxGeometry x="-425" y="455" width="60" height="30" as="geometry" />
        </mxCell>
        <mxCell id="zj8NO0IGrwKYI-p0xuvi-78" value="No" style="text;html=1;align=center;verticalAlign=middle;whiteSpace=wrap;rounded=0;" parent="1" vertex="1">
          <mxGeometry x="-580" y="265" width="60" height="30" as="geometry" />
        </mxCell>
        <mxCell id="zj8NO0IGrwKYI-p0xuvi-79" value="&lt;b&gt;Quy trình thực hiện offer&lt;/b&gt;" style="text;html=1;align=center;verticalAlign=middle;whiteSpace=wrap;rounded=0;" parent="1" vertex="1">
          <mxGeometry x="-510" y="50" width="190" height="30" as="geometry" />
        </mxCell>
        <mxCell id="zj8NO0IGrwKYI-p0xuvi-89" style="edgeStyle=orthogonalEdgeStyle;rounded=0;orthogonalLoop=1;jettySize=auto;html=1;entryX=0.5;entryY=0;entryDx=0;entryDy=0;" parent="1" source="zj8NO0IGrwKYI-p0xuvi-82" target="zj8NO0IGrwKYI-p0xuvi-76" edge="1">
          <mxGeometry relative="1" as="geometry" />
        </mxCell>
        <mxCell id="zj8NO0IGrwKYI-p0xuvi-91" style="edgeStyle=orthogonalEdgeStyle;rounded=0;orthogonalLoop=1;jettySize=auto;html=1;" parent="1" source="zj8NO0IGrwKYI-p0xuvi-82" target="zj8NO0IGrwKYI-p0xuvi-83" edge="1">
          <mxGeometry relative="1" as="geometry">
            <mxPoint x="-570" y="730" as="targetPoint" />
            <Array as="points">
              <mxPoint x="-530" y="840" />
              <mxPoint x="-530" y="730" />
            </Array>
          </mxGeometry>
        </mxCell>
        <mxCell id="zj8NO0IGrwKYI-p0xuvi-82" value="Accept /&amp;nbsp;decline&lt;div&gt;offer ?&lt;/div&gt;" style="rhombus;whiteSpace=wrap;html=1;" parent="1" vertex="1">
          <mxGeometry x="-495" y="800" width="170" height="80" as="geometry" />
        </mxCell>
        <mxCell id="zj8NO0IGrwKYI-p0xuvi-85" style="edgeStyle=orthogonalEdgeStyle;rounded=0;orthogonalLoop=1;jettySize=auto;html=1;entryX=0.5;entryY=0;entryDx=0;entryDy=0;" parent="1" source="zj8NO0IGrwKYI-p0xuvi-83" target="zj8NO0IGrwKYI-p0xuvi-82" edge="1">
          <mxGeometry relative="1" as="geometry" />
        </mxCell>
        <mxCell id="zj8NO0IGrwKYI-p0xuvi-83" value="Nhập giá cho offer" style="shape=parallelogram;perimeter=parallelogramPerimeter;whiteSpace=wrap;html=1;fixedSize=1;" parent="1" vertex="1">
          <mxGeometry x="-482.5" y="700" width="145" height="60" as="geometry" />
        </mxCell>
        <mxCell id="zj8NO0IGrwKYI-p0xuvi-92" value="Yes" style="text;html=1;align=center;verticalAlign=middle;whiteSpace=wrap;rounded=0;" parent="1" vertex="1">
          <mxGeometry x="-425" y="890" width="60" height="30" as="geometry" />
        </mxCell>
        <mxCell id="zj8NO0IGrwKYI-p0xuvi-93" value="No" style="text;html=1;align=center;verticalAlign=middle;whiteSpace=wrap;rounded=0;" parent="1" vertex="1">
          <mxGeometry x="-580" y="770" width="60" height="30" as="geometry" />
        </mxCell>
        <mxCell id="zj8NO0IGrwKYI-p0xuvi-94" value="" style="ellipse;whiteSpace=wrap;html=1;" parent="1" vertex="1">
          <mxGeometry x="-740" y="980" width="120" height="80" as="geometry" />
        </mxCell>
        <mxCell id="zj8NO0IGrwKYI-p0xuvi-96" value="Text" style="text;html=1;align=center;verticalAlign=middle;whiteSpace=wrap;rounded=0;" parent="1" vertex="1">
          <mxGeometry x="-700" y="10" width="60" height="30" as="geometry" />
        </mxCell>
        <mxCell id="qGpCdExe_IWeU6k1gPsl-2" value="Admin" style="shape=umlActor;verticalLabelPosition=bottom;verticalAlign=top;html=1;outlineConnect=0;" vertex="1" parent="1">
          <mxGeometry x="370" y="810" width="30" height="60" as="geometry" />
        </mxCell>
        <mxCell id="qGpCdExe_IWeU6k1gPsl-4" value="eBay Chat" style="ellipse;whiteSpace=wrap;html=1;" vertex="1" parent="1">
          <mxGeometry x="515" y="845" width="110" height="35" as="geometry" />
        </mxCell>
        <mxCell id="qGpCdExe_IWeU6k1gPsl-7" value="Buy team" style="shape=umlActor;verticalLabelPosition=bottom;verticalAlign=top;html=1;outlineConnect=0;" vertex="1" parent="1">
          <mxGeometry x="750" y="745" width="30" height="60" as="geometry" />
        </mxCell>
        <mxCell id="qGpCdExe_IWeU6k1gPsl-8" value="Sell team" style="shape=umlActor;verticalLabelPosition=bottom;verticalAlign=top;html=1;outlineConnect=0;" vertex="1" parent="1">
          <mxGeometry x="750" y="900" width="30" height="60" as="geometry" />
        </mxCell>
        <mxCell id="qGpCdExe_IWeU6k1gPsl-9" value="Buyer Chat" style="ellipse;whiteSpace=wrap;html=1;" vertex="1" parent="1">
          <mxGeometry x="515" y="790" width="110" height="35" as="geometry" />
        </mxCell>
        <mxCell id="qGpCdExe_IWeU6k1gPsl-10" value="Seller Chat" style="ellipse;whiteSpace=wrap;html=1;" vertex="1" parent="1">
          <mxGeometry x="515" y="895" width="110" height="35" as="geometry" />
        </mxCell>
        <mxCell id="qGpCdExe_IWeU6k1gPsl-11" value="Offer" style="ellipse;whiteSpace=wrap;html=1;" vertex="1" parent="1">
          <mxGeometry x="520" y="745" width="110" height="35" as="geometry" />
        </mxCell>
        <mxCell id="qGpCdExe_IWeU6k1gPsl-12" value="Other Chat" style="ellipse;whiteSpace=wrap;html=1;" vertex="1" parent="1">
          <mxGeometry x="515" y="945" width="110" height="35" as="geometry" />
        </mxCell>
        <mxCell id="qGpCdExe_IWeU6k1gPsl-13" value="" style="endArrow=none;html=1;rounded=0;" edge="1" parent="1">
          <mxGeometry width="50" height="50" relative="1" as="geometry">
            <mxPoint x="410" y="850" as="sourcePoint" />
            <mxPoint x="526.702733451486" y="769.9961261999695" as="targetPoint" />
          </mxGeometry>
        </mxCell>
        <mxCell id="qGpCdExe_IWeU6k1gPsl-14" value="" style="endArrow=none;html=1;rounded=0;" edge="1" parent="1">
          <mxGeometry width="50" height="50" relative="1" as="geometry">
            <mxPoint x="410" y="850" as="sourcePoint" />
            <mxPoint x="515" y="810" as="targetPoint" />
          </mxGeometry>
        </mxCell>
        <mxCell id="qGpCdExe_IWeU6k1gPsl-15" value="" style="endArrow=none;html=1;rounded=0;" edge="1" parent="1">
          <mxGeometry width="50" height="50" relative="1" as="geometry">
            <mxPoint x="410" y="850" as="sourcePoint" />
            <mxPoint x="515" y="860" as="targetPoint" />
          </mxGeometry>
        </mxCell>
        <mxCell id="qGpCdExe_IWeU6k1gPsl-16" value="" style="endArrow=none;html=1;rounded=0;" edge="1" parent="1">
          <mxGeometry width="50" height="50" relative="1" as="geometry">
            <mxPoint x="410" y="850" as="sourcePoint" />
            <mxPoint x="515" y="910" as="targetPoint" />
          </mxGeometry>
        </mxCell>
        <mxCell id="qGpCdExe_IWeU6k1gPsl-17" value="" style="endArrow=none;html=1;rounded=0;" edge="1" parent="1">
          <mxGeometry width="50" height="50" relative="1" as="geometry">
            <mxPoint x="410" y="850" as="sourcePoint" />
            <mxPoint x="515" y="960" as="targetPoint" />
          </mxGeometry>
        </mxCell>
        <mxCell id="qGpCdExe_IWeU6k1gPsl-18" value="" style="endArrow=none;html=1;rounded=0;exitX=1;exitY=0.5;exitDx=0;exitDy=0;" edge="1" parent="1" source="qGpCdExe_IWeU6k1gPsl-9">
          <mxGeometry width="50" height="50" relative="1" as="geometry">
            <mxPoint x="690" y="825" as="sourcePoint" />
            <mxPoint x="740" y="775" as="targetPoint" />
          </mxGeometry>
        </mxCell>
        <mxCell id="qGpCdExe_IWeU6k1gPsl-19" value="" style="endArrow=none;html=1;rounded=0;" edge="1" parent="1">
          <mxGeometry width="50" height="50" relative="1" as="geometry">
            <mxPoint x="625" y="910" as="sourcePoint" />
            <mxPoint x="730" y="940" as="targetPoint" />
          </mxGeometry>
        </mxCell>
        <mxCell id="qGpCdExe_IWeU6k1gPsl-20" value="" style="endArrow=none;html=1;rounded=0;exitX=1;exitY=0;exitDx=0;exitDy=0;" edge="1" parent="1" source="qGpCdExe_IWeU6k1gPsl-4">
          <mxGeometry width="50" height="50" relative="1" as="geometry">
            <mxPoint x="630" y="857.5" as="sourcePoint" />
            <mxPoint x="745" y="772.5" as="targetPoint" />
          </mxGeometry>
        </mxCell>
        <mxCell id="qGpCdExe_IWeU6k1gPsl-21" value="" style="endArrow=none;html=1;rounded=0;exitX=1;exitY=1;exitDx=0;exitDy=0;" edge="1" parent="1" source="qGpCdExe_IWeU6k1gPsl-4">
          <mxGeometry width="50" height="50" relative="1" as="geometry">
            <mxPoint x="625" y="910" as="sourcePoint" />
            <mxPoint x="730" y="940" as="targetPoint" />
          </mxGeometry>
        </mxCell>
        <mxCell id="qGpCdExe_IWeU6k1gPsl-22" value="Login" style="rounded=1;whiteSpace=wrap;html=1;" vertex="1" parent="1">
          <mxGeometry x="850" y="110" width="120" height="50" as="geometry" />
        </mxCell>
        <mxCell id="qGpCdExe_IWeU6k1gPsl-24" value="Ebay tool" style="rounded=1;whiteSpace=wrap;html=1;" vertex="1" parent="1">
          <mxGeometry x="850" y="200" width="120" height="50" as="geometry" />
        </mxCell>
        <mxCell id="qGpCdExe_IWeU6k1gPsl-25" value="Chat mobile" style="rounded=1;whiteSpace=wrap;html=1;" vertex="1" parent="1">
          <mxGeometry x="850" y="285" width="120" height="50" as="geometry" />
        </mxCell>
        <mxCell id="qGpCdExe_IWeU6k1gPsl-27" value="Ebay" style="rounded=1;whiteSpace=wrap;html=1;" vertex="1" parent="1">
          <mxGeometry x="1050" y="255" width="120" height="50" as="geometry" />
        </mxCell>
        <mxCell id="qGpCdExe_IWeU6k1gPsl-28" value="Buy" style="rounded=1;whiteSpace=wrap;html=1;" vertex="1" parent="1">
          <mxGeometry x="1050" y="335" width="120" height="50" as="geometry" />
        </mxCell>
        <mxCell id="qGpCdExe_IWeU6k1gPsl-29" value="Sell" style="rounded=1;whiteSpace=wrap;html=1;" vertex="1" parent="1">
          <mxGeometry x="1050" y="170" width="120" height="50" as="geometry" />
        </mxCell>
        <mxCell id="qGpCdExe_IWeU6k1gPsl-30" value="Other" style="rounded=1;whiteSpace=wrap;html=1;" vertex="1" parent="1">
          <mxGeometry x="1050" y="85" width="120" height="50" as="geometry" />
        </mxCell>
        <mxCell id="qGpCdExe_IWeU6k1gPsl-32" value="Offer" style="rounded=1;whiteSpace=wrap;html=1;" vertex="1" parent="1">
          <mxGeometry x="1050" y="420" width="120" height="50" as="geometry" />
        </mxCell>
        <mxCell id="qGpCdExe_IWeU6k1gPsl-33" value="" style="endArrow=none;html=1;rounded=0;exitX=0.5;exitY=0;exitDx=0;exitDy=0;" edge="1" parent="1" source="qGpCdExe_IWeU6k1gPsl-24">
          <mxGeometry width="50" height="50" relative="1" as="geometry">
            <mxPoint x="860" y="210" as="sourcePoint" />
            <mxPoint x="910" y="160" as="targetPoint" />
          </mxGeometry>
        </mxCell>
        <mxCell id="qGpCdExe_IWeU6k1gPsl-34" value="" style="endArrow=none;html=1;rounded=0;exitX=0.5;exitY=0;exitDx=0;exitDy=0;" edge="1" parent="1" source="qGpCdExe_IWeU6k1gPsl-25">
          <mxGeometry width="50" height="50" relative="1" as="geometry">
            <mxPoint x="860" y="300" as="sourcePoint" />
            <mxPoint x="910" y="250" as="targetPoint" />
          </mxGeometry>
        </mxCell>
        <mxCell id="qGpCdExe_IWeU6k1gPsl-35" value="" style="endArrow=none;html=1;rounded=0;" edge="1" parent="1">
          <mxGeometry width="50" height="50" relative="1" as="geometry">
            <mxPoint x="1000" y="400" as="sourcePoint" />
            <mxPoint x="910" y="335" as="targetPoint" />
            <Array as="points">
              <mxPoint x="910" y="400" />
            </Array>
          </mxGeometry>
        </mxCell>
        <mxCell id="qGpCdExe_IWeU6k1gPsl-36" value="" style="endArrow=none;html=1;rounded=0;" edge="1" parent="1">
          <mxGeometry width="50" height="50" relative="1" as="geometry">
            <mxPoint x="1000" y="450" as="sourcePoint" />
            <mxPoint x="1000" y="120" as="targetPoint" />
          </mxGeometry>
        </mxCell>
        <mxCell id="qGpCdExe_IWeU6k1gPsl-39" value="" style="endArrow=none;html=1;rounded=0;" edge="1" parent="1">
          <mxGeometry width="50" height="50" relative="1" as="geometry">
            <mxPoint x="1000" y="120" as="sourcePoint" />
            <mxPoint x="1050" y="120" as="targetPoint" />
          </mxGeometry>
        </mxCell>
        <mxCell id="qGpCdExe_IWeU6k1gPsl-40" value="" style="endArrow=none;html=1;rounded=0;" edge="1" parent="1">
          <mxGeometry width="50" height="50" relative="1" as="geometry">
            <mxPoint x="1000" y="450" as="sourcePoint" />
            <mxPoint x="1050" y="450" as="targetPoint" />
          </mxGeometry>
        </mxCell>
        <mxCell id="qGpCdExe_IWeU6k1gPsl-41" value="" style="endArrow=none;html=1;rounded=0;" edge="1" parent="1">
          <mxGeometry width="50" height="50" relative="1" as="geometry">
            <mxPoint x="1000" y="359.5" as="sourcePoint" />
            <mxPoint x="1050" y="359.5" as="targetPoint" />
          </mxGeometry>
        </mxCell>
        <mxCell id="qGpCdExe_IWeU6k1gPsl-42" value="" style="endArrow=none;html=1;rounded=0;" edge="1" parent="1">
          <mxGeometry width="50" height="50" relative="1" as="geometry">
            <mxPoint x="1000" y="280" as="sourcePoint" />
            <mxPoint x="1050" y="280" as="targetPoint" />
          </mxGeometry>
        </mxCell>
        <mxCell id="qGpCdExe_IWeU6k1gPsl-45" value="" style="endArrow=none;html=1;rounded=0;" edge="1" parent="1">
          <mxGeometry width="50" height="50" relative="1" as="geometry">
            <mxPoint x="1000" y="194.5" as="sourcePoint" />
            <mxPoint x="1050" y="194.5" as="targetPoint" />
          </mxGeometry>
        </mxCell>
        <mxCell id="qGpCdExe_IWeU6k1gPsl-46" value="&#xa;&lt;b id=&quot;docs-internal-guid-eb481fa4-7fff-f59d-849c-147dd90e7407&quot; style=&quot;font-weight:normal;&quot;&gt;&lt;span style=&quot;font-size:13pt;font-family:&#39;Times New Roman&#39;,serif;color:#000000;background-color:transparent;font-weight:700;font-style:normal;font-variant:normal;text-decoration:none;vertical-align:baseline;white-space:pre;white-space:pre-wrap;&quot;&gt;Sơ đồ chức năng hệ thống&lt;/span&gt;&lt;/b&gt;&#xa;&#xa;" style="text;html=1;align=center;verticalAlign=middle;whiteSpace=wrap;rounded=0;" vertex="1" parent="1">
          <mxGeometry x="1230" y="40" width="250" height="30" as="geometry" />
        </mxCell>
        <mxCell id="qGpCdExe_IWeU6k1gPsl-55" style="edgeStyle=orthogonalEdgeStyle;rounded=0;orthogonalLoop=1;jettySize=auto;html=1;entryX=0;entryY=0.5;entryDx=0;entryDy=0;" edge="1" parent="1" source="qGpCdExe_IWeU6k1gPsl-47" target="qGpCdExe_IWeU6k1gPsl-48">
          <mxGeometry relative="1" as="geometry" />
        </mxCell>
        <mxCell id="qGpCdExe_IWeU6k1gPsl-47" value="Login" style="rounded=0;whiteSpace=wrap;html=1;" vertex="1" parent="1">
          <mxGeometry x="860" y="720" width="120" height="50" as="geometry" />
        </mxCell>
        <mxCell id="qGpCdExe_IWeU6k1gPsl-48" value="Chat mobile" style="rounded=0;whiteSpace=wrap;html=1;" vertex="1" parent="1">
          <mxGeometry x="1010" y="720" width="120" height="50" as="geometry" />
        </mxCell>
        <mxCell id="qGpCdExe_IWeU6k1gPsl-49" value="Sell" style="rounded=0;whiteSpace=wrap;html=1;" vertex="1" parent="1">
          <mxGeometry x="1220" y="690" width="120" height="50" as="geometry" />
        </mxCell>
        <mxCell id="qGpCdExe_IWeU6k1gPsl-50" value="Buy" style="rounded=0;whiteSpace=wrap;html=1;" vertex="1" parent="1">
          <mxGeometry x="1220" y="630" width="120" height="50" as="geometry" />
        </mxCell>
        <mxCell id="qGpCdExe_IWeU6k1gPsl-51" value="eBay" style="rounded=0;whiteSpace=wrap;html=1;" vertex="1" parent="1">
          <mxGeometry x="1220" y="570" width="120" height="50" as="geometry" />
        </mxCell>
        <mxCell id="qGpCdExe_IWeU6k1gPsl-52" value="Other" style="rounded=0;whiteSpace=wrap;html=1;" vertex="1" parent="1">
          <mxGeometry x="1220" y="760" width="120" height="50" as="geometry" />
        </mxCell>
        <mxCell id="qGpCdExe_IWeU6k1gPsl-53" value="Offer" style="rounded=0;whiteSpace=wrap;html=1;" vertex="1" parent="1">
          <mxGeometry x="1220" y="825" width="120" height="50" as="geometry" />
        </mxCell>
        <mxCell id="qGpCdExe_IWeU6k1gPsl-58" value="" style="endArrow=none;html=1;rounded=0;" edge="1" parent="1">
          <mxGeometry width="50" height="50" relative="1" as="geometry">
            <mxPoint x="1130" y="740" as="sourcePoint" />
            <mxPoint x="1170" y="740" as="targetPoint" />
          </mxGeometry>
        </mxCell>
        <mxCell id="qGpCdExe_IWeU6k1gPsl-59" value="" style="endArrow=none;html=1;rounded=0;" edge="1" parent="1">
          <mxGeometry width="50" height="50" relative="1" as="geometry">
            <mxPoint x="1170" y="850" as="sourcePoint" />
            <mxPoint x="1170" y="590" as="targetPoint" />
          </mxGeometry>
        </mxCell>
        <mxCell id="qGpCdExe_IWeU6k1gPsl-60" value="" style="endArrow=classic;html=1;rounded=0;" edge="1" parent="1" target="qGpCdExe_IWeU6k1gPsl-51">
          <mxGeometry width="50" height="50" relative="1" as="geometry">
            <mxPoint x="1170" y="595" as="sourcePoint" />
            <mxPoint x="1220" y="550" as="targetPoint" />
          </mxGeometry>
        </mxCell>
        <mxCell id="qGpCdExe_IWeU6k1gPsl-61" value="" style="endArrow=classic;html=1;rounded=0;" edge="1" parent="1">
          <mxGeometry width="50" height="50" relative="1" as="geometry">
            <mxPoint x="1170" y="654.5" as="sourcePoint" />
            <mxPoint x="1220" y="654.5" as="targetPoint" />
          </mxGeometry>
        </mxCell>
        <mxCell id="qGpCdExe_IWeU6k1gPsl-62" value="" style="endArrow=classic;html=1;rounded=0;" edge="1" parent="1">
          <mxGeometry width="50" height="50" relative="1" as="geometry">
            <mxPoint x="1170" y="720" as="sourcePoint" />
            <mxPoint x="1220" y="720" as="targetPoint" />
          </mxGeometry>
        </mxCell>
        <mxCell id="qGpCdExe_IWeU6k1gPsl-63" value="" style="endArrow=classic;html=1;rounded=0;" edge="1" parent="1">
          <mxGeometry width="50" height="50" relative="1" as="geometry">
            <mxPoint x="1170" y="785" as="sourcePoint" />
            <mxPoint x="1220" y="785" as="targetPoint" />
          </mxGeometry>
        </mxCell>
        <mxCell id="qGpCdExe_IWeU6k1gPsl-64" value="" style="endArrow=classic;html=1;rounded=0;" edge="1" parent="1">
          <mxGeometry width="50" height="50" relative="1" as="geometry">
            <mxPoint x="1170" y="849.5" as="sourcePoint" />
            <mxPoint x="1220" y="849.5" as="targetPoint" />
          </mxGeometry>
        </mxCell>
        <mxCell id="qGpCdExe_IWeU6k1gPsl-80" style="edgeStyle=orthogonalEdgeStyle;rounded=0;orthogonalLoop=1;jettySize=auto;html=1;entryX=0;entryY=0.5;entryDx=0;entryDy=0;" edge="1" source="qGpCdExe_IWeU6k1gPsl-81" target="qGpCdExe_IWeU6k1gPsl-82" parent="1">
          <mxGeometry relative="1" as="geometry" />
        </mxCell>
        <mxCell id="qGpCdExe_IWeU6k1gPsl-81" value="Login" style="rounded=0;whiteSpace=wrap;html=1;" vertex="1" parent="1">
          <mxGeometry x="870" y="1170" width="120" height="50" as="geometry" />
        </mxCell>
        <mxCell id="qGpCdExe_IWeU6k1gPsl-82" value="Chat mobile" style="rounded=0;whiteSpace=wrap;html=1;" vertex="1" parent="1">
          <mxGeometry x="1020" y="1170" width="120" height="50" as="geometry" />
        </mxCell>
        <mxCell id="qGpCdExe_IWeU6k1gPsl-87" value="Buy" style="rounded=0;whiteSpace=wrap;html=1;" vertex="1" parent="1">
          <mxGeometry x="1230" y="1210" width="120" height="50" as="geometry" />
        </mxCell>
        <mxCell id="qGpCdExe_IWeU6k1gPsl-88" value="" style="endArrow=none;html=1;rounded=0;" edge="1" parent="1">
          <mxGeometry width="50" height="50" relative="1" as="geometry">
            <mxPoint x="1140" y="1190" as="sourcePoint" />
            <mxPoint x="1180" y="1190" as="targetPoint" />
          </mxGeometry>
        </mxCell>
        <mxCell id="qGpCdExe_IWeU6k1gPsl-89" value="" style="endArrow=none;html=1;rounded=0;" edge="1" parent="1">
          <mxGeometry width="50" height="50" relative="1" as="geometry">
            <mxPoint x="1180" y="1235" as="sourcePoint" />
            <mxPoint x="1180" y="1155" as="targetPoint" />
          </mxGeometry>
        </mxCell>
        <mxCell id="qGpCdExe_IWeU6k1gPsl-94" value="" style="endArrow=classic;html=1;rounded=0;" edge="1" parent="1">
          <mxGeometry width="50" height="50" relative="1" as="geometry">
            <mxPoint x="1180" y="1234.5" as="sourcePoint" />
            <mxPoint x="1230" y="1234.5" as="targetPoint" />
          </mxGeometry>
        </mxCell>
        <mxCell id="qGpCdExe_IWeU6k1gPsl-95" value="Ebay" style="rounded=0;whiteSpace=wrap;html=1;" vertex="1" parent="1">
          <mxGeometry x="1230" y="1130" width="120" height="50" as="geometry" />
        </mxCell>
        <mxCell id="qGpCdExe_IWeU6k1gPsl-98" value="" style="endArrow=classic;html=1;rounded=0;" edge="1" parent="1">
          <mxGeometry width="50" height="50" relative="1" as="geometry">
            <mxPoint x="1180" y="1154.5" as="sourcePoint" />
            <mxPoint x="1230" y="1154.5" as="targetPoint" />
          </mxGeometry>
        </mxCell>
        <mxCell id="qGpCdExe_IWeU6k1gPsl-99" style="edgeStyle=orthogonalEdgeStyle;rounded=0;orthogonalLoop=1;jettySize=auto;html=1;entryX=0;entryY=0.5;entryDx=0;entryDy=0;" edge="1" source="qGpCdExe_IWeU6k1gPsl-100" target="qGpCdExe_IWeU6k1gPsl-101" parent="1">
          <mxGeometry relative="1" as="geometry" />
        </mxCell>
        <mxCell id="qGpCdExe_IWeU6k1gPsl-100" value="Login" style="rounded=0;whiteSpace=wrap;html=1;" vertex="1" parent="1">
          <mxGeometry x="890" y="975" width="120" height="50" as="geometry" />
        </mxCell>
        <mxCell id="qGpCdExe_IWeU6k1gPsl-101" value="Chat mobile" style="rounded=0;whiteSpace=wrap;html=1;" vertex="1" parent="1">
          <mxGeometry x="1040" y="975" width="120" height="50" as="geometry" />
        </mxCell>
        <mxCell id="qGpCdExe_IWeU6k1gPsl-102" value="Sell" style="rounded=0;whiteSpace=wrap;html=1;" vertex="1" parent="1">
          <mxGeometry x="1250" y="1015" width="120" height="50" as="geometry" />
        </mxCell>
        <mxCell id="qGpCdExe_IWeU6k1gPsl-103" value="" style="endArrow=none;html=1;rounded=0;" edge="1" parent="1">
          <mxGeometry width="50" height="50" relative="1" as="geometry">
            <mxPoint x="1160" y="995" as="sourcePoint" />
            <mxPoint x="1200" y="995" as="targetPoint" />
          </mxGeometry>
        </mxCell>
        <mxCell id="qGpCdExe_IWeU6k1gPsl-104" value="" style="endArrow=none;html=1;rounded=0;" edge="1" parent="1">
          <mxGeometry width="50" height="50" relative="1" as="geometry">
            <mxPoint x="1200" y="1040" as="sourcePoint" />
            <mxPoint x="1200" y="960" as="targetPoint" />
          </mxGeometry>
        </mxCell>
        <mxCell id="qGpCdExe_IWeU6k1gPsl-105" value="" style="endArrow=classic;html=1;rounded=0;" edge="1" parent="1">
          <mxGeometry width="50" height="50" relative="1" as="geometry">
            <mxPoint x="1200" y="1039.5" as="sourcePoint" />
            <mxPoint x="1250" y="1039.5" as="targetPoint" />
          </mxGeometry>
        </mxCell>
        <mxCell id="qGpCdExe_IWeU6k1gPsl-106" value="Ebay" style="rounded=0;whiteSpace=wrap;html=1;" vertex="1" parent="1">
          <mxGeometry x="1250" y="935" width="120" height="50" as="geometry" />
        </mxCell>
        <mxCell id="qGpCdExe_IWeU6k1gPsl-107" value="" style="endArrow=classic;html=1;rounded=0;" edge="1" parent="1">
          <mxGeometry width="50" height="50" relative="1" as="geometry">
            <mxPoint x="1200" y="959.5" as="sourcePoint" />
            <mxPoint x="1250" y="959.5" as="targetPoint" />
          </mxGeometry>
        </mxCell>
        <mxCell id="qGpCdExe_IWeU6k1gPsl-108" style="edgeStyle=orthogonalEdgeStyle;rounded=0;orthogonalLoop=1;jettySize=auto;html=1;entryX=0;entryY=0.5;entryDx=0;entryDy=0;" edge="1" source="qGpCdExe_IWeU6k1gPsl-109" target="qGpCdExe_IWeU6k1gPsl-110" parent="1">
          <mxGeometry relative="1" as="geometry" />
        </mxCell>
        <mxCell id="qGpCdExe_IWeU6k1gPsl-109" value="Login" style="rounded=0;whiteSpace=wrap;html=1;" vertex="1" parent="1">
          <mxGeometry x="880" y="1350" width="120" height="50" as="geometry" />
        </mxCell>
        <mxCell id="qGpCdExe_IWeU6k1gPsl-110" value="Chat mobile" style="rounded=0;whiteSpace=wrap;html=1;" vertex="1" parent="1">
          <mxGeometry x="1030" y="1350" width="120" height="50" as="geometry" />
        </mxCell>
        <mxCell id="qGpCdExe_IWeU6k1gPsl-111" value="Other" style="rounded=0;whiteSpace=wrap;html=1;" vertex="1" parent="1">
          <mxGeometry x="1240" y="1390" width="120" height="50" as="geometry" />
        </mxCell>
        <mxCell id="qGpCdExe_IWeU6k1gPsl-112" value="" style="endArrow=none;html=1;rounded=0;" edge="1" parent="1">
          <mxGeometry width="50" height="50" relative="1" as="geometry">
            <mxPoint x="1150" y="1370" as="sourcePoint" />
            <mxPoint x="1190" y="1370" as="targetPoint" />
          </mxGeometry>
        </mxCell>
        <mxCell id="qGpCdExe_IWeU6k1gPsl-113" value="" style="endArrow=none;html=1;rounded=0;" edge="1" parent="1">
          <mxGeometry width="50" height="50" relative="1" as="geometry">
            <mxPoint x="1190" y="1415" as="sourcePoint" />
            <mxPoint x="1190" y="1335" as="targetPoint" />
          </mxGeometry>
        </mxCell>
        <mxCell id="qGpCdExe_IWeU6k1gPsl-114" value="" style="endArrow=classic;html=1;rounded=0;" edge="1" parent="1">
          <mxGeometry width="50" height="50" relative="1" as="geometry">
            <mxPoint x="1190" y="1414.5" as="sourcePoint" />
            <mxPoint x="1240" y="1414.5" as="targetPoint" />
          </mxGeometry>
        </mxCell>
        <mxCell id="qGpCdExe_IWeU6k1gPsl-115" value="Ebay" style="rounded=0;whiteSpace=wrap;html=1;" vertex="1" parent="1">
          <mxGeometry x="1240" y="1310" width="120" height="50" as="geometry" />
        </mxCell>
        <mxCell id="qGpCdExe_IWeU6k1gPsl-116" value="" style="endArrow=classic;html=1;rounded=0;" edge="1" parent="1">
          <mxGeometry width="50" height="50" relative="1" as="geometry">
            <mxPoint x="1190" y="1334.5" as="sourcePoint" />
            <mxPoint x="1240" y="1334.5" as="targetPoint" />
          </mxGeometry>
        </mxCell>
        <mxCell id="qGpCdExe_IWeU6k1gPsl-117" style="edgeStyle=orthogonalEdgeStyle;rounded=0;orthogonalLoop=1;jettySize=auto;html=1;entryX=0;entryY=0.5;entryDx=0;entryDy=0;" edge="1" source="qGpCdExe_IWeU6k1gPsl-118" target="qGpCdExe_IWeU6k1gPsl-119" parent="1">
          <mxGeometry relative="1" as="geometry" />
        </mxCell>
        <mxCell id="qGpCdExe_IWeU6k1gPsl-118" value="Login" style="rounded=0;whiteSpace=wrap;html=1;" vertex="1" parent="1">
          <mxGeometry x="880" y="1520" width="120" height="50" as="geometry" />
        </mxCell>
        <mxCell id="qGpCdExe_IWeU6k1gPsl-119" value="Chat mobile" style="rounded=0;whiteSpace=wrap;html=1;" vertex="1" parent="1">
          <mxGeometry x="1030" y="1520" width="120" height="50" as="geometry" />
        </mxCell>
        <mxCell id="qGpCdExe_IWeU6k1gPsl-120" value="Offer" style="rounded=0;whiteSpace=wrap;html=1;" vertex="1" parent="1">
          <mxGeometry x="1240" y="1560" width="120" height="50" as="geometry" />
        </mxCell>
        <mxCell id="qGpCdExe_IWeU6k1gPsl-121" value="" style="endArrow=none;html=1;rounded=0;" edge="1" parent="1">
          <mxGeometry width="50" height="50" relative="1" as="geometry">
            <mxPoint x="1150" y="1540" as="sourcePoint" />
            <mxPoint x="1190" y="1540" as="targetPoint" />
          </mxGeometry>
        </mxCell>
        <mxCell id="qGpCdExe_IWeU6k1gPsl-122" value="" style="endArrow=none;html=1;rounded=0;" edge="1" parent="1">
          <mxGeometry width="50" height="50" relative="1" as="geometry">
            <mxPoint x="1190" y="1585" as="sourcePoint" />
            <mxPoint x="1190" y="1505" as="targetPoint" />
          </mxGeometry>
        </mxCell>
        <mxCell id="qGpCdExe_IWeU6k1gPsl-123" value="" style="endArrow=classic;html=1;rounded=0;" edge="1" parent="1">
          <mxGeometry width="50" height="50" relative="1" as="geometry">
            <mxPoint x="1190" y="1584.5" as="sourcePoint" />
            <mxPoint x="1240" y="1584.5" as="targetPoint" />
          </mxGeometry>
        </mxCell>
        <mxCell id="qGpCdExe_IWeU6k1gPsl-124" value="Ebay" style="rounded=0;whiteSpace=wrap;html=1;" vertex="1" parent="1">
          <mxGeometry x="1240" y="1480" width="120" height="50" as="geometry" />
        </mxCell>
        <mxCell id="qGpCdExe_IWeU6k1gPsl-125" value="" style="endArrow=classic;html=1;rounded=0;" edge="1" parent="1">
          <mxGeometry width="50" height="50" relative="1" as="geometry">
            <mxPoint x="1190" y="1504.5" as="sourcePoint" />
            <mxPoint x="1240" y="1504.5" as="targetPoint" />
          </mxGeometry>
        </mxCell>
        <mxCell id="qGpCdExe_IWeU6k1gPsl-126" value="Sơ đồ cấp quản lý" style="text;html=1;align=center;verticalAlign=middle;whiteSpace=wrap;rounded=0;" vertex="1" parent="1">
          <mxGeometry x="1870" y="1650" width="240" height="30" as="geometry" />
        </mxCell>
        <mxCell id="qGpCdExe_IWeU6k1gPsl-127" style="edgeStyle=orthogonalEdgeStyle;rounded=0;orthogonalLoop=1;jettySize=auto;html=1;entryX=0;entryY=0.5;entryDx=0;entryDy=0;" edge="1" source="qGpCdExe_IWeU6k1gPsl-128" target="qGpCdExe_IWeU6k1gPsl-129" parent="1">
          <mxGeometry relative="1" as="geometry" />
        </mxCell>
        <mxCell id="qGpCdExe_IWeU6k1gPsl-128" value="Login" style="rounded=0;whiteSpace=wrap;html=1;" vertex="1" parent="1">
          <mxGeometry x="1390" y="725" width="120" height="50" as="geometry" />
        </mxCell>
        <mxCell id="qGpCdExe_IWeU6k1gPsl-129" value="Chat App" style="rounded=0;whiteSpace=wrap;html=1;" vertex="1" parent="1">
          <mxGeometry x="1540" y="725" width="120" height="50" as="geometry" />
        </mxCell>
        <mxCell id="qGpCdExe_IWeU6k1gPsl-130" value="Sell" style="rounded=0;whiteSpace=wrap;html=1;" vertex="1" parent="1">
          <mxGeometry x="1750" y="695" width="120" height="50" as="geometry" />
        </mxCell>
        <mxCell id="qGpCdExe_IWeU6k1gPsl-131" value="Buy" style="rounded=0;whiteSpace=wrap;html=1;" vertex="1" parent="1">
          <mxGeometry x="1750" y="635" width="120" height="50" as="geometry" />
        </mxCell>
        <mxCell id="qGpCdExe_IWeU6k1gPsl-132" value="eBay" style="rounded=0;whiteSpace=wrap;html=1;" vertex="1" parent="1">
          <mxGeometry x="1750" y="575" width="120" height="50" as="geometry" />
        </mxCell>
        <mxCell id="qGpCdExe_IWeU6k1gPsl-133" value="Other" style="rounded=0;whiteSpace=wrap;html=1;" vertex="1" parent="1">
          <mxGeometry x="1750" y="765" width="120" height="50" as="geometry" />
        </mxCell>
        <mxCell id="qGpCdExe_IWeU6k1gPsl-134" value="Offer" style="rounded=0;whiteSpace=wrap;html=1;" vertex="1" parent="1">
          <mxGeometry x="1750" y="830" width="120" height="50" as="geometry" />
        </mxCell>
        <mxCell id="qGpCdExe_IWeU6k1gPsl-135" value="" style="endArrow=none;html=1;rounded=0;" edge="1" parent="1">
          <mxGeometry width="50" height="50" relative="1" as="geometry">
            <mxPoint x="1660" y="745" as="sourcePoint" />
            <mxPoint x="1700" y="745" as="targetPoint" />
          </mxGeometry>
        </mxCell>
        <mxCell id="qGpCdExe_IWeU6k1gPsl-136" value="" style="endArrow=none;html=1;rounded=0;" edge="1" parent="1">
          <mxGeometry width="50" height="50" relative="1" as="geometry">
            <mxPoint x="1700" y="855" as="sourcePoint" />
            <mxPoint x="1700" y="595" as="targetPoint" />
          </mxGeometry>
        </mxCell>
        <mxCell id="qGpCdExe_IWeU6k1gPsl-137" value="" style="endArrow=classic;html=1;rounded=0;" edge="1" target="qGpCdExe_IWeU6k1gPsl-132" parent="1">
          <mxGeometry width="50" height="50" relative="1" as="geometry">
            <mxPoint x="1700" y="600" as="sourcePoint" />
            <mxPoint x="1750" y="555" as="targetPoint" />
          </mxGeometry>
        </mxCell>
        <mxCell id="qGpCdExe_IWeU6k1gPsl-138" value="" style="endArrow=classic;html=1;rounded=0;" edge="1" parent="1">
          <mxGeometry width="50" height="50" relative="1" as="geometry">
            <mxPoint x="1700" y="659.5" as="sourcePoint" />
            <mxPoint x="1750" y="659.5" as="targetPoint" />
          </mxGeometry>
        </mxCell>
        <mxCell id="qGpCdExe_IWeU6k1gPsl-139" value="" style="endArrow=classic;html=1;rounded=0;" edge="1" parent="1">
          <mxGeometry width="50" height="50" relative="1" as="geometry">
            <mxPoint x="1700" y="725" as="sourcePoint" />
            <mxPoint x="1750" y="725" as="targetPoint" />
          </mxGeometry>
        </mxCell>
        <mxCell id="qGpCdExe_IWeU6k1gPsl-140" value="" style="endArrow=classic;html=1;rounded=0;" edge="1" parent="1">
          <mxGeometry width="50" height="50" relative="1" as="geometry">
            <mxPoint x="1700" y="790" as="sourcePoint" />
            <mxPoint x="1750" y="790" as="targetPoint" />
          </mxGeometry>
        </mxCell>
        <mxCell id="qGpCdExe_IWeU6k1gPsl-141" value="" style="endArrow=classic;html=1;rounded=0;" edge="1" parent="1">
          <mxGeometry width="50" height="50" relative="1" as="geometry">
            <mxPoint x="1700" y="854.5" as="sourcePoint" />
            <mxPoint x="1750" y="854.5" as="targetPoint" />
          </mxGeometry>
        </mxCell>
        <mxCell id="qGpCdExe_IWeU6k1gPsl-142" style="edgeStyle=orthogonalEdgeStyle;rounded=0;orthogonalLoop=1;jettySize=auto;html=1;entryX=0;entryY=0.5;entryDx=0;entryDy=0;" edge="1" source="qGpCdExe_IWeU6k1gPsl-143" target="qGpCdExe_IWeU6k1gPsl-144" parent="1">
          <mxGeometry relative="1" as="geometry" />
        </mxCell>
        <mxCell id="qGpCdExe_IWeU6k1gPsl-143" value="Login" style="rounded=0;whiteSpace=wrap;html=1;" vertex="1" parent="1">
          <mxGeometry x="1440" y="970" width="120" height="50" as="geometry" />
        </mxCell>
        <mxCell id="qGpCdExe_IWeU6k1gPsl-144" value="Chat App" style="rounded=0;whiteSpace=wrap;html=1;" vertex="1" parent="1">
          <mxGeometry x="1590" y="970" width="120" height="50" as="geometry" />
        </mxCell>
        <mxCell id="qGpCdExe_IWeU6k1gPsl-145" value="Sell" style="rounded=0;whiteSpace=wrap;html=1;" vertex="1" parent="1">
          <mxGeometry x="1800" y="1010" width="120" height="50" as="geometry" />
        </mxCell>
        <mxCell id="qGpCdExe_IWeU6k1gPsl-146" value="" style="endArrow=none;html=1;rounded=0;" edge="1" parent="1">
          <mxGeometry width="50" height="50" relative="1" as="geometry">
            <mxPoint x="1710" y="990" as="sourcePoint" />
            <mxPoint x="1750" y="990" as="targetPoint" />
          </mxGeometry>
        </mxCell>
        <mxCell id="qGpCdExe_IWeU6k1gPsl-147" value="" style="endArrow=none;html=1;rounded=0;" edge="1" parent="1">
          <mxGeometry width="50" height="50" relative="1" as="geometry">
            <mxPoint x="1750" y="1035" as="sourcePoint" />
            <mxPoint x="1750" y="955" as="targetPoint" />
          </mxGeometry>
        </mxCell>
        <mxCell id="qGpCdExe_IWeU6k1gPsl-148" value="" style="endArrow=classic;html=1;rounded=0;" edge="1" parent="1">
          <mxGeometry width="50" height="50" relative="1" as="geometry">
            <mxPoint x="1750" y="1034.5" as="sourcePoint" />
            <mxPoint x="1800" y="1034.5" as="targetPoint" />
          </mxGeometry>
        </mxCell>
        <mxCell id="qGpCdExe_IWeU6k1gPsl-149" value="Ebay" style="rounded=0;whiteSpace=wrap;html=1;" vertex="1" parent="1">
          <mxGeometry x="1800" y="930" width="120" height="50" as="geometry" />
        </mxCell>
        <mxCell id="qGpCdExe_IWeU6k1gPsl-150" value="" style="endArrow=classic;html=1;rounded=0;" edge="1" parent="1">
          <mxGeometry width="50" height="50" relative="1" as="geometry">
            <mxPoint x="1750" y="954.5" as="sourcePoint" />
            <mxPoint x="1800" y="954.5" as="targetPoint" />
          </mxGeometry>
        </mxCell>
        <mxCell id="qGpCdExe_IWeU6k1gPsl-151" style="edgeStyle=orthogonalEdgeStyle;rounded=0;orthogonalLoop=1;jettySize=auto;html=1;entryX=0;entryY=0.5;entryDx=0;entryDy=0;" edge="1" source="qGpCdExe_IWeU6k1gPsl-152" target="qGpCdExe_IWeU6k1gPsl-153" parent="1">
          <mxGeometry relative="1" as="geometry" />
        </mxCell>
        <mxCell id="qGpCdExe_IWeU6k1gPsl-152" value="Login" style="rounded=0;whiteSpace=wrap;html=1;" vertex="1" parent="1">
          <mxGeometry x="1420" y="1180" width="120" height="50" as="geometry" />
        </mxCell>
        <mxCell id="qGpCdExe_IWeU6k1gPsl-153" value="Chat App" style="rounded=0;whiteSpace=wrap;html=1;" vertex="1" parent="1">
          <mxGeometry x="1570" y="1180" width="120" height="50" as="geometry" />
        </mxCell>
        <mxCell id="qGpCdExe_IWeU6k1gPsl-154" value="Buy" style="rounded=0;whiteSpace=wrap;html=1;" vertex="1" parent="1">
          <mxGeometry x="1780" y="1220" width="120" height="50" as="geometry" />
        </mxCell>
        <mxCell id="qGpCdExe_IWeU6k1gPsl-155" value="" style="endArrow=none;html=1;rounded=0;" edge="1" parent="1">
          <mxGeometry width="50" height="50" relative="1" as="geometry">
            <mxPoint x="1690" y="1200" as="sourcePoint" />
            <mxPoint x="1730" y="1200" as="targetPoint" />
          </mxGeometry>
        </mxCell>
        <mxCell id="qGpCdExe_IWeU6k1gPsl-156" value="" style="endArrow=none;html=1;rounded=0;" edge="1" parent="1">
          <mxGeometry width="50" height="50" relative="1" as="geometry">
            <mxPoint x="1730" y="1245" as="sourcePoint" />
            <mxPoint x="1730" y="1165" as="targetPoint" />
          </mxGeometry>
        </mxCell>
        <mxCell id="qGpCdExe_IWeU6k1gPsl-157" value="" style="endArrow=classic;html=1;rounded=0;" edge="1" parent="1">
          <mxGeometry width="50" height="50" relative="1" as="geometry">
            <mxPoint x="1730" y="1244.5" as="sourcePoint" />
            <mxPoint x="1780" y="1244.5" as="targetPoint" />
          </mxGeometry>
        </mxCell>
        <mxCell id="qGpCdExe_IWeU6k1gPsl-158" value="Ebay" style="rounded=0;whiteSpace=wrap;html=1;" vertex="1" parent="1">
          <mxGeometry x="1780" y="1140" width="120" height="50" as="geometry" />
        </mxCell>
        <mxCell id="qGpCdExe_IWeU6k1gPsl-159" value="" style="endArrow=classic;html=1;rounded=0;" edge="1" parent="1">
          <mxGeometry width="50" height="50" relative="1" as="geometry">
            <mxPoint x="1730" y="1164.5" as="sourcePoint" />
            <mxPoint x="1780" y="1164.5" as="targetPoint" />
          </mxGeometry>
        </mxCell>
        <mxCell id="qGpCdExe_IWeU6k1gPsl-160" style="edgeStyle=orthogonalEdgeStyle;rounded=0;orthogonalLoop=1;jettySize=auto;html=1;entryX=0;entryY=0.5;entryDx=0;entryDy=0;" edge="1" source="qGpCdExe_IWeU6k1gPsl-161" target="qGpCdExe_IWeU6k1gPsl-162" parent="1">
          <mxGeometry relative="1" as="geometry" />
        </mxCell>
        <mxCell id="qGpCdExe_IWeU6k1gPsl-161" value="Login" style="rounded=0;whiteSpace=wrap;html=1;" vertex="1" parent="1">
          <mxGeometry x="1420" y="1350" width="120" height="50" as="geometry" />
        </mxCell>
        <mxCell id="qGpCdExe_IWeU6k1gPsl-162" value="Chat App" style="rounded=0;whiteSpace=wrap;html=1;" vertex="1" parent="1">
          <mxGeometry x="1570" y="1350" width="120" height="50" as="geometry" />
        </mxCell>
        <mxCell id="qGpCdExe_IWeU6k1gPsl-163" value="Other" style="rounded=0;whiteSpace=wrap;html=1;" vertex="1" parent="1">
          <mxGeometry x="1780" y="1390" width="120" height="50" as="geometry" />
        </mxCell>
        <mxCell id="qGpCdExe_IWeU6k1gPsl-164" value="" style="endArrow=none;html=1;rounded=0;" edge="1" parent="1">
          <mxGeometry width="50" height="50" relative="1" as="geometry">
            <mxPoint x="1690" y="1370" as="sourcePoint" />
            <mxPoint x="1730" y="1370" as="targetPoint" />
          </mxGeometry>
        </mxCell>
        <mxCell id="qGpCdExe_IWeU6k1gPsl-165" value="" style="endArrow=none;html=1;rounded=0;" edge="1" parent="1">
          <mxGeometry width="50" height="50" relative="1" as="geometry">
            <mxPoint x="1730" y="1415" as="sourcePoint" />
            <mxPoint x="1730" y="1335" as="targetPoint" />
          </mxGeometry>
        </mxCell>
        <mxCell id="qGpCdExe_IWeU6k1gPsl-166" value="" style="endArrow=classic;html=1;rounded=0;" edge="1" parent="1">
          <mxGeometry width="50" height="50" relative="1" as="geometry">
            <mxPoint x="1730" y="1414.5" as="sourcePoint" />
            <mxPoint x="1780" y="1414.5" as="targetPoint" />
          </mxGeometry>
        </mxCell>
        <mxCell id="qGpCdExe_IWeU6k1gPsl-167" value="Ebay" style="rounded=0;whiteSpace=wrap;html=1;" vertex="1" parent="1">
          <mxGeometry x="1780" y="1310" width="120" height="50" as="geometry" />
        </mxCell>
        <mxCell id="qGpCdExe_IWeU6k1gPsl-168" value="" style="endArrow=classic;html=1;rounded=0;" edge="1" parent="1">
          <mxGeometry width="50" height="50" relative="1" as="geometry">
            <mxPoint x="1730" y="1334.5" as="sourcePoint" />
            <mxPoint x="1780" y="1334.5" as="targetPoint" />
          </mxGeometry>
        </mxCell>
      </root>
    </mxGraphModel>
  </diagram>
</mxfile>
